<?xml version="1.0" encoding="UTF-8"?>
<svg xmlns="http://www.w3.org/2000/svg" viewBox="0 0 1300 750" width="100%" height="100%">

<defs>
    <marker id="arrowhead" markerWidth="10" markerHeight="7" refX="9" refY="3.5" orient="auto">
      <polygon points="0 0, 10 3.5, 0 7" fill="#7f8c8d" />
    </marker>
    <filter id="drop-shadow" x="-20%" y="-20%" width="140%" height="140%">
      <feDropShadow dx="3" dy="5" stdDeviation="4" flood-color="#000000" flood-opacity="0.15" />
    </filter>
</defs>
<rect width="100%" height="100%" fill="#ffffff" />

<g><rect x="30" y="40" width="240" height="300" fill="#f4f9f4" rx="10" stroke="#95a5a6" stroke-width="2" stroke-dasharray="8,4" /><text x="150.0" y="65" font-family="Segoe UI, Arial, sans-serif" font-size="16" font-weight="bold" fill="#7f8c8d" text-anchor="middle">1. Spatial Pre-Processing</text></g>
<g><polygon points="60,100 140,100 160,80 80,80" fill="#dcedc1" stroke="#2c3e50" stroke-width="1.5" /><polygon points="140,100 160,80 160,160 140,180" fill="#88d8b0" stroke="#2c3e50" stroke-width="1.5" /><rect x="60" y="100" width="80" height="80" fill="#a8e6cf" stroke="#2c3e50" stroke-width="1.5" /><text x="100.0" y="135.0" font-family="Segoe UI, Arial, sans-serif" font-size="14" font-weight="bold" fill="#1a252f" text-anchor="middle">SpaceNet MS</text><text x="100.0" y="155.0" font-family="Segoe UI, Arial, sans-serif" font-size="12" fill="#34495e" text-anchor="middle">(C x H x W)</text></g>
<g><line x1="160" y1="140" x2="220" y2="140" stroke="#7f8c8d" stroke-width="2" marker-end="url(#arrowhead)" /><text x="190.0" y="130.0" font-family="Segoe UI, Arial, sans-serif" font-size="13" font-style="italic" fill="#7f8c8d" text-anchor="middle">F.interpolate</text></g>
<g><polygon points="220,100 320,100 345,75 245,75" fill="#ffc0cb" stroke="#2c3e50" stroke-width="1.5" /><polygon points="320,100 345,75 345,175 320,200" fill="#c08497" stroke="#2c3e50" stroke-width="1.5" /><rect x="220" y="100" width="100" height="100" fill="#d4a5a5" stroke="#2c3e50" stroke-width="1.5" /><text x="270.0" y="145.0" font-family="Segoe UI, Arial, sans-serif" font-size="14" font-weight="bold" fill="#1a252f" text-anchor="middle">1.2m -> 0.3m</text><text x="270.0" y="165.0" font-family="Segoe UI, Arial, sans-serif" font-size="12" fill="#34495e" text-anchor="middle">1280x1280</text></g>
<g><line x1="270" y1="200" x2="270" y2="250" stroke="#7f8c8d" stroke-width="2" marker-end="url(#arrowhead)" /><text x="270.0" y="215.0" font-family="Segoe UI, Arial, sans-serif" font-size="13" font-style="italic" fill="#7f8c8d" text-anchor="middle">C=3 (RGB)</text></g>
<g><rect x="320" y="40" width="500" height="480" fill="#eef2f5" rx="10" stroke="#95a5a6" stroke-width="2" stroke-dasharray="8,4" /><text x="570.0" y="65" font-family="Segoe UI, Arial, sans-serif" font-size="16" font-weight="bold" fill="#7f8c8d" text-anchor="middle">2. UNet++ Topology-Preserving Architecture</text></g>
<g><polygon points="360,100 420,100 450,70 390,70" fill="#c5dbff" stroke="#2c3e50" stroke-width="1.5" /><polygon points="420,100 450,70 450,190 420,220" fill="#6399f2" stroke="#2c3e50" stroke-width="1.5" /><rect x="360" y="100" width="60" height="120" fill="#8cb8ff" stroke="#2c3e50" stroke-width="1.5" /><text x="390.0" y="155.0" font-family="Segoe UI, Arial, sans-serif" font-size="14" font-weight="bold" fill="#1a252f" text-anchor="middle">Enc 1</text><text x="390.0" y="175.0" font-family="Segoe UI, Arial, sans-serif" font-size="12" fill="#34495e" text-anchor="middle">64xH/2</text></g>
<g><line x1="450" y1="160" x2="480" y2="210" stroke="#7f8c8d" stroke-width="2" marker-end="url(#arrowhead)" /></g>
<g><polygon points="480,180 530,180 555,155 505,155" fill="#c5dbff" stroke="#2c3e50" stroke-width="1.5" /><polygon points="530,180 555,155 555,255 530,280" fill="#6399f2" stroke="#2c3e50" stroke-width="1.5" /><rect x="480" y="180" width="50" height="100" fill="#8cb8ff" stroke="#2c3e50" stroke-width="1.5" /><text x="505.0" y="225.0" font-family="Segoe UI, Arial, sans-serif" font-size="14" font-weight="bold" fill="#1a252f" text-anchor="middle">Enc 2</text><text x="505.0" y="245.0" font-family="Segoe UI, Arial, sans-serif" font-size="12" fill="#34495e" text-anchor="middle">128xH/4</text></g>
<g><line x1="555" y1="230" x2="590" y2="280" stroke="#7f8c8d" stroke-width="2" marker-end="url(#arrowhead)" /></g>
<g><polygon points="590,250 630,250 650,230 610,230" fill="#c5dbff" stroke="#2c3e50" stroke-width="1.5" /><polygon points="630,250 650,230 650,310 630,330" fill="#6399f2" stroke="#2c3e50" stroke-width="1.5" /><rect x="590" y="250" width="40" height="80" fill="#8cb8ff" stroke="#2c3e50" stroke-width="1.5" /><text x="610.0" y="285.0" font-family="Segoe UI, Arial, sans-serif" font-size="14" font-weight="bold" fill="#1a252f" text-anchor="middle">Enc 3</text><text x="610.0" y="305.0" font-family="Segoe UI, Arial, sans-serif" font-size="12" fill="#34495e" text-anchor="middle">256xH/8</text></g>
<g><line x1="650" y1="290" x2="690" y2="340" stroke="#7f8c8d" stroke-width="2" marker-end="url(#arrowhead)" /></g>
<g><polygon points="690,310 720,310 735,295 705,295" fill="#ffe4d6" stroke="#2c3e50" stroke-width="1.5" /><polygon points="720,310 735,295 735,355 720,370" fill="#ffaaa5" stroke="#2c3e50" stroke-width="1.5" /><rect x="690" y="310" width="30" height="60" fill="#ffd3b6" stroke="#2c3e50" stroke-width="1.5" /><text x="705.0" y="335.0" font-family="Segoe UI, Arial, sans-serif" font-size="14" font-weight="bold" fill="#1a252f" text-anchor="middle">Bottle</text><text x="705.0" y="355.0" font-family="Segoe UI, Arial, sans-serif" font-size="12" fill="#34495e" text-anchor="middle">512</text></g>
<g><line x1="735" y1="340" x2="780" y2="290" stroke="#7f8c8d" stroke-width="2" marker-end="url(#arrowhead)" /></g>
<g><polygon points="780,250 820,250 840,230 800,230" fill="#ffdac1" stroke="#2c3e50" stroke-width="1.5" /><polygon points="820,250 840,230 840,310 820,330" fill="#e28743" stroke="#2c3e50" stroke-width="1.5" /><rect x="780" y="250" width="40" height="80" fill="#ffb7b2" stroke="#2c3e50" stroke-width="1.5" /><text x="800.0" y="285.0" font-family="Segoe UI, Arial, sans-serif" font-size="14" font-weight="bold" fill="#1a252f" text-anchor="middle">Dec 3</text><text x="800.0" y="305.0" font-family="Segoe UI, Arial, sans-serif" font-size="12" fill="#34495e" text-anchor="middle">256xH/8</text></g>
<g><line x1="840" y1="290" x2="880" y2="230" stroke="#7f8c8d" stroke-width="2" marker-end="url(#arrowhead)" /></g>
<g><polygon points="880,180 930,180 955,155 905,155" fill="#ffdac1" stroke="#2c3e50" stroke-width="1.5" /><polygon points="930,180 955,155 955,255 930,280" fill="#e28743" stroke="#2c3e50" stroke-width="1.5" /><rect x="880" y="180" width="50" height="100" fill="#ffb7b2" stroke="#2c3e50" stroke-width="1.5" /><text x="905.0" y="225.0" font-family="Segoe UI, Arial, sans-serif" font-size="14" font-weight="bold" fill="#1a252f" text-anchor="middle">Dec 2</text><text x="905.0" y="245.0" font-family="Segoe UI, Arial, sans-serif" font-size="12" fill="#34495e" text-anchor="middle">128xH/4</text></g>
<g><line x1="955" y1="230" x2="990" y2="160" stroke="#7f8c8d" stroke-width="2" marker-end="url(#arrowhead)" /></g>
<g><polygon points="990,100 1050,100 1080,70 1020,70" fill="#ffdac1" stroke="#2c3e50" stroke-width="1.5" /><polygon points="1050,100 1080,70 1080,190 1050,220" fill="#e28743" stroke="#2c3e50" stroke-width="1.5" /><rect x="990" y="100" width="60" height="120" fill="#ffb7b2" stroke="#2c3e50" stroke-width="1.5" /><text x="1020.0" y="155.0" font-family="Segoe UI, Arial, sans-serif" font-size="14" font-weight="bold" fill="#1a252f" text-anchor="middle">Dec 1</text><text x="1020.0" y="175.0" font-family="Segoe UI, Arial, sans-serif" font-size="12" fill="#34495e" text-anchor="middle">64xH/2</text></g>
<g><line x1="420" y1="105" x2="990" y2="105" stroke="#7f8c8d" stroke-width="2" marker-end="url(#arrowhead)" /><text x="705.0" y="95.0" font-family="Segoe UI, Arial, sans-serif" font-size="13" font-style="italic" fill="#7f8c8d" text-anchor="middle">Dense Skip</text></g>
<g><line x1="530" y1="185" x2="880" y2="185" stroke="#7f8c8d" stroke-width="2" marker-end="url(#arrowhead)" /><text x="705.0" y="175.0" font-family="Segoe UI, Arial, sans-serif" font-size="13" font-style="italic" fill="#7f8c8d" text-anchor="middle">Dense Skip</text></g>
<g><line x1="630" y1="255" x2="780" y2="255" stroke="#7f8c8d" stroke-width="2" marker-end="url(#arrowhead)" /><text x="705.0" y="245.0" font-family="Segoe UI, Arial, sans-serif" font-size="13" font-style="italic" fill="#7f8c8d" text-anchor="middle">Dense Skip</text></g>
<g><line x1="270" y1="280" x2="360" y2="160" stroke="#7f8c8d" stroke-width="2" marker-end="url(#arrowhead)" /></g>
<g><line x1="1080" y1="160" x2="1150" y2="160" stroke="#7f8c8d" stroke-width="2" marker-end="url(#arrowhead)" /><text x="1115.0" y="150.0" font-family="Segoe UI, Arial, sans-serif" font-size="13" font-style="italic" fill="#7f8c8d" text-anchor="middle">Sigmoid</text></g>
<g><polygon points="1150,120 1230,120 1245,105 1165,105" fill="#f39c12" stroke="#2c3e50" stroke-width="1.5" /><polygon points="1230,120 1245,105 1245,185 1230,200" fill="#e67e22" stroke="#2c3e50" stroke-width="1.5" /><rect x="1150" y="120" width="80" height="80" fill="#f1c40f" stroke="#2c3e50" stroke-width="1.5" /><text x="1190.0" y="155.0" font-family="Segoe UI, Arial, sans-serif" font-size="14" font-weight="bold" fill="#1a252f" text-anchor="middle">Road Mask</text><text x="1190.0" y="175.0" font-family="Segoe UI, Arial, sans-serif" font-size="12" fill="#34495e" text-anchor="middle">(1x1280x1280)</text></g>
<g><rect x="30" y="380" width="540" height="340" fill="#f9f2f4" rx="10" stroke="#95a5a6" stroke-width="2" stroke-dasharray="8,4" /><text x="300.0" y="405" font-family="Segoe UI, Arial, sans-serif" font-size="16" font-weight="bold" fill="#7f8c8d" text-anchor="middle">3. Hybrid Topological Los&#8853;Functions</text></g>
<g><polygon points="60,440 140,440 155,425 75,425" fill="#ecf0f1" stroke="#2c3e50" stroke-width="1.5" /><polygon points="140,440 155,425 155,505 140,520" fill="#95a5a6" stroke="#2c3e50" stroke-width="1.5" /><rect x="60" y="440" width="80" height="80" fill="#bdc3c7" stroke="#2c3e50" stroke-width="1.5" /><text x="100.0" y="475.0" font-family="Segoe UI, Arial, sans-serif" font-size="14" font-weight="bold" fill="#1a252f" text-anchor="middle">GT Mask</text><text x="100.0" y="495.0" font-family="Segoe UI, Arial, sans-serif" font-size="12" fill="#34495e" text-anchor="middle">Y</text></g>
<g><line x1="1190" y1="200" x2="100" y2="440" stroke="#7f8c8d" stroke-width="2" marker-end="url(#arrowhead)" /></g>
<g><circle cx="200" cy="480" r="18" fill="#fff" stroke="#2c3e50" stroke-width="1.5" /><text x="200" y="486" font-family="Segoe UI, Arial, sans-serif" font-size="18" font-weight="bold" fill="#2c3e50" text-anchor="middle">L</text></g>
<g><line x1="155" y1="480" x2="180" y2="480" stroke="#7f8c8d" stroke-width="2" marker-end="url(#arrowhead)" /></g>
<g><polygon points="250,420 350,420 360,410 260,410" fill="#8e44ad" stroke="#2c3e50" stroke-width="1.5" /><polygon points="350,420 360,410 360,460 350,470" fill="#8e44ad" stroke="#2c3e50" stroke-width="1.5" /><rect x="250" y="420" width="100" height="50" fill="#9b59b6" stroke="#2c3e50" stroke-width="1.5" /><text x="300.0" y="440.0" font-family="Segoe UI, Arial, sans-serif" font-size="14" font-weight="bold" fill="#1a252f" text-anchor="middle">Min/Max Pooling</text><text x="300.0" y="460.0" font-family="Segoe UI, Arial, sans-serif" font-size="12" fill="#34495e" text-anchor="middle">Skeletonization</text></g>
<g><line x1="200" y1="460" x2="250" y2="445" stroke="#7f8c8d" stroke-width="2" marker-end="url(#arrowhead)" /></g>
<g><circle cx="400" cy="445" r="18" fill="#fff" stroke="#2c3e50" stroke-width="1.5" /><text x="400" y="451" font-family="Segoe UI, Arial, sans-serif" font-size="18" font-weight="bold" fill="#2c3e50" text-anchor="middle">⊕</text></g>
<g><line x1="360" y1="445" x2="380" y2="445" stroke="#7f8c8d" stroke-width="2" marker-end="url(#arrowhead)" /></g>
<g><polygon points="440,420 540,420 550,410 450,410" fill="#c0392b" stroke="#2c3e50" stroke-width="1.5" /><polygon points="540,420 550,410 550,460 540,470" fill="#c0392b" stroke="#2c3e50" stroke-width="1.5" /><rect x="440" y="420" width="100" height="50" fill="#e74c3c" stroke="#2c3e50" stroke-width="1.5" /><text x="490.0" y="440.0" font-family="Segoe UI, Arial, sans-serif" font-size="14" font-weight="bold" fill="#1a252f" text-anchor="middle">soft-clDice</text><text x="490.0" y="460.0" font-family="Segoe UI, Arial, sans-serif" font-size="12" fill="#34495e" text-anchor="middle">Topology Prec/Sens</text></g>
<g><line x1="420" y1="445" x2="440" y2="445" stroke="#7f8c8d" stroke-width="2" marker-end="url(#arrowhead)" /></g>
<g><polygon points="250,520 350,520 360,510 260,510" fill="#2c3e50" stroke="#2c3e50" stroke-width="1.5" /><polygon points="350,520 360,510 360,560 350,570" fill="#2c3e50" stroke="#2c3e50" stroke-width="1.5" /><rect x="250" y="520" width="100" height="50" fill="#34495e" stroke="#2c3e50" stroke-width="1.5" /><text x="300.0" y="540.0" font-family="Segoe UI, Arial, sans-serif" font-size="14" font-weight="bold" fill="#1a252f" text-anchor="middle">Frozen VGG-19</text><text x="300.0" y="560.0" font-family="Segoe UI, Arial, sans-serif" font-size="12" fill="#34495e" text-anchor="middle">Feature Maps</text></g>
<g><line x1="200" y1="500" x2="250" y2="545" stroke="#7f8c8d" stroke-width="2" marker-end="url(#arrowhead)" /></g>
<g><circle cx="400" cy="545" r="18" fill="#fff" stroke="#2c3e50" stroke-width="1.5" /><text x="400" y="551" font-family="Segoe UI, Arial, sans-serif" font-size="18" font-weight="bold" fill="#2c3e50" text-anchor="middle">⊗</text></g>
<g><line x1="360" y1="545" x2="380" y2="545" stroke="#7f8c8d" stroke-width="2" marker-end="url(#arrowhead)" /></g>
<g><polygon points="440,520 540,520 550,510 450,510" fill="#d35400" stroke="#2c3e50" stroke-width="1.5" /><polygon points="540,520 550,510 550,560 540,570" fill="#d35400" stroke="#2c3e50" stroke-width="1.5" /><rect x="440" y="520" width="100" height="50" fill="#e67e22" stroke="#2c3e50" stroke-width="1.5" /><text x="490.0" y="540.0" font-family="Segoe UI, Arial, sans-serif" font-size="14" font-weight="bold" fill="#1a252f" text-anchor="middle">Perceptual Loss</text><text x="490.0" y="560.0" font-family="Segoe UI, Arial, sans-serif" font-size="12" fill="#34495e" text-anchor="middle">Structural Match</text></g>
<g><line x1="420" y1="545" x2="440" y2="545" stroke="#7f8c8d" stroke-width="2" marker-end="url(#arrowhead)" /></g>
<g><rect x="650" y="550" width="580" height="170" fill="#eef9f5" rx="10" stroke="#95a5a6" stroke-width="2" stroke-dasharray="8,4" /><text x="940.0" y="575" font-family="Segoe UI, Arial, sans-serif" font-size="16" font-weight="bold" fill="#7f8c8d" text-anchor="middle">4. Graph-Theoretic Gap Bridging &amp; Resilience</text></g>
<g><polygon points="680,600 780,600 790,590 690,590" fill="#16a085" stroke="#2c3e50" stroke-width="1.5" /><polygon points="780,600 790,590 790,650 780,660" fill="#16a085" stroke="#2c3e50" stroke-width="1.5" /><rect x="680" y="600" width="100" height="60" fill="#1abc9c" stroke="#2c3e50" stroke-width="1.5" /><text x="730.0" y="625.0" font-family="Segoe UI, Arial, sans-serif" font-size="14" font-weight="bold" fill="#1a252f" text-anchor="middle">Endpoint Detect</text><text x="730.0" y="645.0" font-family="Segoe UI, Arial, sans-serif" font-size="12" fill="#34495e" text-anchor="middle">sknw graph</text></g>
<g><line x1="1190" y1="200" x2="730" y2="600" stroke="#7f8c8d" stroke-width="2" marker-end="url(#arrowhead)" /></g>
<g><line x1="790" y1="630" x2="840" y2="630" stroke="#7f8c8d" stroke-width="2" marker-end="url(#arrowhead)" /></g>
<g><polygon points="840,600 950,600 960,590 850,590" fill="#2980b9" stroke="#2c3e50" stroke-width="1.5" /><polygon points="950,600 960,590 960,650 950,660" fill="#2980b9" stroke="#2c3e50" stroke-width="1.5" /><rect x="840" y="600" width="110" height="60" fill="#3498db" stroke="#2c3e50" stroke-width="1.5" /><text x="895.0" y="625.0" font-family="Segoe UI, Arial, sans-serif" font-size="14" font-weight="bold" fill="#1a252f" text-anchor="middle">A* Pathfinding</text><text x="895.0" y="645.0" font-family="Segoe UI, Arial, sans-serif" font-size="12" fill="#34495e" text-anchor="middle">Shortest Gap Bridge</text></g>
<g><line x1="960" y1="630" x2="1010" y2="630" stroke="#7f8c8d" stroke-width="2" marker-end="url(#arrowhead)" /></g>
<g><polygon points="1010,600 1200,600 1210,590 1020,590" fill="#8e44ad" stroke="#2c3e50" stroke-width="1.5" /><polygon points="1200,600 1210,590 1210,650 1200,660" fill="#8e44ad" stroke="#2c3e50" stroke-width="1.5" /><rect x="1010" y="600" width="190" height="60" fill="#9b59b6" stroke="#2c3e50" stroke-width="1.5" /><text x="1105.0" y="625.0" font-family="Segoe UI, Arial, sans-serif" font-size="14" font-weight="bold" fill="#1a252f" text-anchor="middle">Network Disaster Simulation</text><text x="1105.0" y="645.0" font-family="Segoe UI, Arial, sans-serif" font-size="12" fill="#34495e" text-anchor="middle">Betweennes&#8853;Centrality</text></g>
</svg>
